<svg width="428" height="428" viewBox="0 0 428 428" fill="none" xmlns="http://www.w3.org/2000/svg">
    <path fill-rule="evenodd" clip-rule="evenodd"
        d="M427.334 214C427.334 331.821 331.821 427.333 214 427.333C96.1795 427.333 0.666992 331.821 0.666992 214C0.666992 96.1792 96.1795 0.666626 214 0.666626C331.821 0.666626 427.334 96.1792 427.334 214ZM131.033 296.967C126.868 292.802 126.868 286.049 131.033 281.883L198.916 214.001L131.033 146.118C126.868 141.952 126.868 135.199 131.033 131.032C135.198 126.867 141.952 126.867 146.118 131.032L214 198.915L281.883 131.034C286.048 126.868 292.802 126.868 296.968 131.034C301.133 135.199 301.133 141.953 296.968 146.118L229.085 214.001L296.968 281.883C301.133 286.048 301.133 292.802 296.968 296.967C292.801 301.133 286.048 301.133 281.883 296.967L214 229.086L146.119 296.967C141.952 301.134 135.199 301.134 131.033 296.967Z"
        fill="#FF0000" />
</svg>
